<svg role="img" viewBox="0 0 24 24" fill="#1DA1F2" xmlns="http://www.w3.org/2000/svg">
  <title>Twitter</title>
  <path d="M23.954 4.569c-.885.39-1.83.654-2.825.775 1.014-.608 1.794-1.574 2.163-2.723-.949.564-2.005.974-3.127 1.195-.896-.959-2.173-1.559-3.591-1.559-2.717 0-4.92 2.204-4.92 4.917 0 .39.045.765.127 1.124-4.086-.205-7.713-2.163-10.141-5.144-.422.722-.666 1.561-.666 2.475 0 1.708.869 3.216 2.188 4.099-.807-.025-1.566-.247-2.229-.616v.062c0 2.388 1.698 4.384 3.946 4.834-.413.11-.849.171-1.296.171-.317 0-.626-.03-.928-.086.627 1.956 2.444 3.379 4.6 3.419-1.68 1.316-3.809 2.102-6.102 2.102-.396 0-.79-.023-1.175-.067 2.179 1.394 4.768 2.209 7.557 2.209 9.054 0 14-7.496 14-13.986 0-.21 0-.423-.015-.633.962-.695 1.797-1.562 2.457-2.549z"></path>
</svg>
